<svg width="60" height="60" viewBox="0 0 60 60" fill="none" xmlns="http://www.w3.org/2000/svg">
<circle cx="30" cy="30" r="30" fill="white"/>
<g clip-path="url(#clip0)">
<g clip-path="url(#clip1)">
<path d="M39.8815 15.4001H20.2518C17.3926 15.4001 15.0667 17.7261 15.0667 20.5853V40.215C15.0667 43.0742 17.3926 45.4001 20.2518 45.4001H39.8815C42.7407 45.4001 45.0666 43.0742 45.0666 40.215V20.5853C45.0666 17.7261 42.7407 15.4001 39.8815 15.4001ZM27.7037 20.0964L27.7185 20.1261H27.6444L27.7037 20.0964ZM39.6741 35.7557L39.4518 36.1705C38.5926 37.815 36.7111 38.6594 34.9185 38.1853C32.1333 37.4298 29.4074 35.889 27.3037 33.7409C25.1555 31.6224 23.6148 28.9113 22.8592 26.1261C22.3704 24.3335 23.2296 22.452 24.8741 21.5927C25.0518 21.5039 25.2148 21.415 25.3778 21.3261C25.8815 21.0594 26.4889 21.2224 26.8 21.6964C27.3481 22.5261 28.1185 23.7261 29.0518 25.1483C29.3333 25.5779 29.2741 26.1557 28.9037 26.5261L28.0741 27.3557C27.6592 27.7705 27.5407 28.4076 27.7926 28.9557C28.6667 30.8668 30.1926 32.3927 32.1037 33.2668C32.637 33.5187 33.2741 33.4001 33.7037 32.9853L34.4592 32.2298C34.8296 31.8594 35.3926 31.8001 35.837 32.0816L39.3185 34.3483C39.7778 34.6446 39.9407 35.252 39.6741 35.7557Z" fill="#16DA12"/>
</g>
</g>
<defs>
<clipPath id="clip0">
<rect width="30" height="30" fill="white" transform="translate(15 16)"/>
</clipPath>
<clipPath id="clip1">
<rect width="50" height="50" fill="white" transform="translate(13.4 15.4001)"/>
</clipPath>
</defs>
</svg>
