<svg height="512" viewBox="0 0 64 64" width="512" xmlns="http://www.w3.org/2000/svg" xmlns:xlink="http://www.w3.org/1999/xlink"><linearGradient id="linear-gradient" gradientUnits="userSpaceOnUse" x1="-16.904" x2="54.902" y1="47.751" y2="-24.055"><stop offset="0" stop-color="#003f8a"/><stop offset=".518" stop-color="#00d7df"/><stop offset="1" stop-color="#006df0"/></linearGradient><linearGradient id="linear-gradient-2" x1="-19.789" x2="52.017" xlink:href="#linear-gradient" y1="44.866" y2="-26.939"/><linearGradient id="linear-gradient-3" x1="-19.868" x2="51.938" xlink:href="#linear-gradient" y1="44.787" y2="-27.018"/><linearGradient id="linear-gradient-4" x1="-21.293" x2="50.512" xlink:href="#linear-gradient" y1="43.362" y2="-28.444"/><linearGradient id="linear-gradient-5" x1="-21.321" x2="50.485" xlink:href="#linear-gradient" y1="43.335" y2="-28.471"/><linearGradient id="linear-gradient-6" x1="-12.85" x2="58.955" xlink:href="#linear-gradient" y1="51.805" y2="-20.001"/><linearGradient id="linear-gradient-7" x1="-17.029" x2="54.776" xlink:href="#linear-gradient" y1="47.626" y2="-24.18"/><linearGradient id="linear-gradient-8" x1="8.562" x2="80.367" xlink:href="#linear-gradient" y1="73.217" y2="1.411"/><linearGradient id="linear-gradient-9" x1="3.188" x2="74.993" xlink:href="#linear-gradient" y1="67.843" y2="-3.963"/><linearGradient id="linear-gradient-10" x1="-7.912" x2="63.894" xlink:href="#linear-gradient" y1="56.743" y2="-15.063"/><linearGradient id="linear-gradient-11" x1="-2.435" x2="69.371" xlink:href="#linear-gradient" y1="62.22" y2="-9.586"/><linearGradient id="linear-gradient-12" x1="18.716" x2="90.522" xlink:href="#linear-gradient" y1="83.371" y2="11.565"/><linearGradient id="linear-gradient-13" x1="16.975" x2="88.781" xlink:href="#linear-gradient" y1="81.63" y2="9.824"/><linearGradient id="linear-gradient-14" x1="14.381" x2="86.186" xlink:href="#linear-gradient" y1="79.036" y2="7.23"/><linearGradient id="linear-gradient-15" x1="19.578" x2="91.383" xlink:href="#linear-gradient" y1="84.233" y2="12.427"/><linearGradient id="linear-gradient-16" x1="20.77" x2="92.576" xlink:href="#linear-gradient" y1="85.425" y2="13.619"/><linearGradient id="linear-gradient-17" x1="20.477" x2="92.283" xlink:href="#linear-gradient" y1="85.132" y2="13.327"/><linearGradient id="linear-gradient-18" x1="13.15" x2="84.955" xlink:href="#linear-gradient" y1="77.805" y2="5.999"/><linearGradient id="linear-gradient-19" x1="-13.013" x2="58.792" xlink:href="#linear-gradient" y1="51.642" y2="-20.164"/><linearGradient id="linear-gradient-20" x1="2.982" x2="74.788" xlink:href="#linear-gradient" y1="67.637" y2="-4.169"/><linearGradient id="linear-gradient-21" x1="-2.643" x2="69.163" xlink:href="#linear-gradient" y1="62.012" y2="-9.793"/><linearGradient id="linear-gradient-22" x1="-8.104" x2="63.702" xlink:href="#linear-gradient" y1="56.551" y2="-15.254"/><linearGradient id="linear-gradient-23" x1="8.376" x2="80.181" xlink:href="#linear-gradient" y1="73.031" y2="1.225"/><linearGradient id="linear-gradient-24" x1="-.328" x2="71.478" xlink:href="#linear-gradient" y1="64.328" y2="-7.478"/><linearGradient id="linear-gradient-25" x1="-.324" x2="71.481" xlink:href="#linear-gradient" y1="64.331" y2="-7.475"/><linearGradient id="linear-gradient-26" x1="-6.828" x2="64.978" xlink:href="#linear-gradient" y1="57.828" y2="-13.978"/><path d="m26.6 3.484a.993.993 0 0 0 .179-.016 29.2 29.2 0 0 1 3.838-.436 1 1 0 0 0 -.094-2 31.291 31.291 0 0 0 -4.1.466 1 1 0 0 0 .177 1.986z" fill="url(#linear-gradient)"/><path d="m19.021 5.946a1 1 0 0 0 .432-.1 28.683 28.683 0 0 1 3.584-1.436 1 1 0 0 0 -.617-1.9 30.966 30.966 0 0 0 -3.834 1.536 1 1 0 0 0 .435 1.9z" fill="url(#linear-gradient-2)"/><path d="m3.232 23.4a1.014 1.014 0 0 0 .319.052 1 1 0 0 0 .948-.683 28.878 28.878 0 0 1 1.472-3.569 1 1 0 0 0 -1.795-.884 30.873 30.873 0 0 0 -1.576 3.822 1 1 0 0 0 .632 1.262z" fill="url(#linear-gradient-3)"/><path d="m12.357 10.324a1 1 0 0 0 .656-.244 29.057 29.057 0 0 1 3.08-2.332 1 1 0 1 0 -1.1-1.671 31.409 31.409 0 0 0 -3.293 2.491 1 1 0 0 0 .655 1.756z" fill="url(#linear-gradient-4)"/><path d="m7.074 16.3a1 1 0 0 0 .831-.443 29.205 29.205 0 0 1 2.362-3.057 1 1 0 0 0 -1.5-1.324 30.994 30.994 0 0 0 -2.524 3.268 1 1 0 0 0 .831 1.556z" fill="url(#linear-gradient-5)"/><path d="m34.484 3.105a28.867 28.867 0 0 1 3.818.582 1 1 0 0 0 .431-1.954 31.087 31.087 0 0 0 -4.081-.621 1 1 0 0 0 -.168 1.993z" fill="url(#linear-gradient-6)"/><path d="m1.992 31.285h.058a1 1 0 0 0 1-.943 29.215 29.215 0 0 1 .473-3.835 1 1 0 0 0 -1.965-.375 31.3 31.3 0 0 0 -.5 4.1 1 1 0 0 0 .934 1.053z" fill="url(#linear-gradient-7)"/><path d="m58.5 20.206a28.9 28.9 0 0 1 1.331 3.625 1 1 0 0 0 .96.719 1.015 1.015 0 0 0 .281-.04 1 1 0 0 0 .679-1.241 30.857 30.857 0 0 0 -1.425-3.877 1 1 0 1 0 -1.826.814z" fill="url(#linear-gradient-8)"/><path d="m56.7 16.792a1 1 0 1 0 1.7-1.049 31.021 31.021 0 0 0 -2.4-3.361 1 1 0 1 0 -1.547 1.266 29.03 29.03 0 0 1 2.247 3.144z" fill="url(#linear-gradient-9)"/><path d="m42.011 4.774a28.69 28.69 0 0 1 3.526 1.574 1 1 0 1 0 .938-1.767 30.736 30.736 0 0 0 -3.775-1.681 1 1 0 1 0 -.689 1.877z" fill="url(#linear-gradient-10)"/><path d="m51.816 10.827a1 1 0 0 0 1.368-1.46 31.236 31.236 0 0 0 -3.195-2.616 1 1 0 0 0 -1.162 1.628 29.038 29.038 0 0 1 2.989 2.448z" fill="url(#linear-gradient-11)"/><path d="m61.21 38.939a1 1 0 0 0 -1.228.7 28.979 28.979 0 0 1 -1.263 3.652 1 1 0 0 0 .531 1.309 1.018 1.018 0 0 0 .39.079 1 1 0 0 0 .921-.611 31.024 31.024 0 0 0 1.351-3.905 1 1 0 0 0 -.702-1.224z" fill="url(#linear-gradient-12)"/><path d="m38.84 60.188a28.813 28.813 0 0 1 -3.807.655 1 1 0 0 0 .1 1.995c.034 0 .069 0 .1-.005a31.169 31.169 0 0 0 4.071-.7 1 1 0 0 0 -.471-1.945z" fill="url(#linear-gradient-13)"/><path d="m62.956 31.706a1 1 0 0 0 .038-.292 31.218 31.218 0 0 0 -.348-4.114 1 1 0 0 0 -1.977.3 29.273 29.273 0 0 1 .325 3.849 1 1 0 0 0 .044.276 1.03 1.03 0 0 0 -.038.275 29.575 29.575 0 0 1 -.254 3.856 1 1 0 0 0 .86 1.123 1.169 1.169 0 0 0 .132.008 1 1 0 0 0 .991-.868 31.484 31.484 0 0 0 .271-4.119 1.02 1.02 0 0 0 -.044-.294z" fill="url(#linear-gradient-14)"/><path d="m46.018 57.393a29 29 0 0 1 -3.494 1.639 1 1 0 1 0 .727 1.863 30.947 30.947 0 0 0 3.735-1.752 1 1 0 1 0 -.968-1.75z" fill="url(#linear-gradient-15)"/><path d="m52.207 52.8a29.168 29.168 0 0 1 -2.941 2.5 1 1 0 1 0 1.191 1.606 31.391 31.391 0 0 0 3.143-2.671 1 1 0 0 0 -1.393-1.435z" fill="url(#linear-gradient-16)"/><path d="m58.348 46.391a1 1 0 0 0 -1.369.352 29.246 29.246 0 0 1 -2.179 3.187 1 1 0 1 0 1.57 1.237 31.029 31.029 0 0 0 2.33-3.406 1 1 0 0 0 -.352-1.37z" fill="url(#linear-gradient-17)"/><path d="m31.172 60.988a29.007 29.007 0 0 1 -3.845-.363 1 1 0 0 0 -.32 1.975 31.121 31.121 0 0 0 4.11.387h.029a1 1 0 0 0 .026-2z" fill="url(#linear-gradient-18)"/><path d="m3.629 38.031a29.289 29.289 0 0 1 -.545-3.824 1 1 0 1 0 -1.994.15 31.2 31.2 0 0 0 .582 4.087 1 1 0 0 0 .977.793 1.056 1.056 0 0 0 .208-.021 1 1 0 0 0 .772-1.185z" fill="url(#linear-gradient-19)"/><path d="m16.551 56.547a29.122 29.122 0 0 1 -3.124-2.274 1 1 0 0 0 -1.281 1.536 31.212 31.212 0 0 0 3.338 2.43 1 1 0 0 0 1.067-1.692z" fill="url(#linear-gradient-20)"/><path d="m8.214 48.594a1 1 0 0 0 -1.639 1.146 31.106 31.106 0 0 0 2.584 3.218 1 1 0 1 0 1.473-1.352 29.3 29.3 0 0 1 -2.418-3.012z" fill="url(#linear-gradient-21)"/><path d="m4.679 41.747a1 1 0 0 0 -1.885.671 31.09 31.09 0 0 0 1.645 3.789 1 1 0 0 0 1.778-.918 28.715 28.715 0 0 1 -1.538-3.542z" fill="url(#linear-gradient-22)"/><path d="m23.563 59.754a29.086 29.086 0 0 1 -3.613-1.368 1 1 0 1 0 -.832 1.818 30.668 30.668 0 0 0 3.865 1.464 1.014 1.014 0 0 0 .29.043 1 1 0 0 0 .29-1.957z" fill="url(#linear-gradient-23)"/><path d="m5 32a27 27 0 1 0 27-27 27.03 27.03 0 0 0 -27 27zm27-25a25 25 0 1 1 -25 25 25.028 25.028 0 0 1 25-25z" fill="url(#linear-gradient-24)"/><path d="m32 47a15 15 0 0 0 4.285-29.379 1 1 0 0 0 -.57 1.917 13 13 0 1 1 -7.43 0 1 1 0 0 0 -.57-1.917 15 15 0 0 0 4.285 29.379z" fill="url(#linear-gradient-25)"/><path d="m32 24a1 1 0 0 0 1-1v-8a1 1 0 0 0 -2 0v8a1 1 0 0 0 1 1z" fill="url(#linear-gradient-26)"/></svg>