<?xml version="1.0" ?><svg enable-background="new 0 0 40 40" id="Слой_1" version="1.1" viewBox="0 0 40 40" xml:space="preserve" xmlns="http://www.w3.org/2000/svg" xmlns:xlink="http://www.w3.org/1999/xlink"><g><path d="M19.9,18.9c-0.6,0-1-0.4-1-1V2.3c0-0.6,0.4-1,1-1s1,0.4,1,1v15.5C20.9,18.4,20.4,18.9,19.9,18.9z"/></g><g><path d="M19.9,38.3c-8.3,0-15-6.7-15-15c0-6.6,4.4-12.5,10.7-14.4c0.5-0.2,1.1,0.1,1.2,0.7c0.2,0.5-0.1,1.1-0.7,1.2   c-5.5,1.6-9.3,6.8-9.3,12.5c0,7.2,5.8,13,13,13s13-5.8,13-13c0-5.7-3.6-10.7-9.1-12.4c-0.5-0.2-0.8-0.7-0.7-1.3   c0.2-0.5,0.7-0.8,1.3-0.7c6.3,2,10.5,7.7,10.5,14.3C34.9,31.6,28.2,38.3,19.9,38.3z"/></g></svg>