<svg width="60" height="60" viewBox="0 0 60 60" fill="none" xmlns="http://www.w3.org/2000/svg">
<circle cx="30" cy="30" r="30" fill="white"/>
<path d="M30.0001 11.7451C32.4611 11.7451 34.8517 12.2373 37.1017 13.2129C39.2814 14.1533 41.2325 15.5068 42.9113 17.2295C44.59 18.9521 45.9171 20.9648 46.84 23.1973C47.798 25.5176 48.2814 27.9785 48.2814 30.5186C48.2814 34.5439 47.0597 38.3848 44.7482 41.6191C43.6408 43.1748 42.3048 44.5371 40.7931 45.6797C39.4044 46.7256 37.8927 47.5518 36.2931 48.1582C36.2931 47.9912 36.2931 47.7979 36.2931 47.5869C36.3019 46.541 36.3107 44.9678 36.3107 43.1572C36.3107 42.0674 36.1349 41.1797 35.88 40.4766C39.1495 39.7471 43.9659 37.5147 43.9659 29.4551C43.9659 27.293 43.3419 25.3682 42.1027 23.7334C42.3751 22.5996 42.5861 20.6045 41.6544 18.1963L41.4171 17.5723L40.7843 17.3613C40.6525 17.3174 40.3624 17.2471 39.9054 17.2471C38.8947 17.2471 37.1896 17.5898 34.6759 19.2334C33.1818 18.8643 31.6173 18.6533 30.0089 18.6533H30.0001H29.9913C28.3829 18.6533 26.8097 18.8643 25.3243 19.2334C22.8107 17.5898 21.1056 17.2383 20.0949 17.2383C19.6378 17.2383 19.3478 17.3174 19.2159 17.3613L18.5831 17.5723L18.3458 18.1963C17.4142 20.6133 17.6251 22.6084 17.8976 23.7334C16.6583 25.377 16.0343 27.3018 16.0343 29.4551C16.0343 33.8145 17.4406 36.4775 19.2511 38.1123C18.5392 37.5322 17.6163 37.0488 16.5089 36.9697H16.465H16.421H16.3947C15.2433 36.9697 14.4347 37.4443 14.1798 38.2617C13.7667 39.5625 15.0411 40.459 15.463 40.7578L15.507 40.8106L15.6388 40.8633C15.7794 40.9512 16.5265 41.4785 17.1241 43.0166C17.2999 43.5615 17.6779 44.291 18.3195 44.9678C17.1681 43.9834 16.1398 42.8584 15.2521 41.6191C12.9406 38.3936 11.7189 34.5527 11.7189 30.5273C11.7189 27.9873 12.2023 25.5264 13.1603 23.2061C14.0831 20.9648 15.4015 18.9609 17.089 17.2383C18.7677 15.5156 20.7277 14.1621 22.8986 13.2217C25.1486 12.2461 27.5392 11.7451 30.0001 11.7451ZM19.5148 38.3496C20.9913 39.5889 22.7052 40.1865 24.1115 40.5029C24.0411 40.6963 23.9796 40.8984 23.9269 41.1094C23.6281 41.1973 23.2677 41.2676 22.8986 41.2676C21.9406 41.2676 21.2286 40.793 20.6486 39.7822C20.4376 39.3779 20.0509 38.8418 19.5148 38.3496ZM19.84 46.1367C20.7013 46.6025 21.7824 46.9102 23.1095 46.9102C23.3029 46.9102 23.4962 46.9014 23.6984 46.8926C23.6984 47.1387 23.6984 47.376 23.7072 47.5869C23.7072 47.7979 23.7072 47.9912 23.7159 48.1582C22.3449 47.6484 21.0529 46.9717 19.84 46.1367ZM30.0001 10.3389C19.1281 10.3389 10.3126 19.3828 10.3126 30.5273C10.3126 39.4482 15.9552 47.0068 23.7775 49.6787C23.9005 49.7051 24.006 49.7139 24.1115 49.7139C24.8409 49.7139 25.1222 49.1777 25.1222 48.7119C25.1222 48.2285 25.1046 46.9629 25.0958 45.2754C24.3575 45.4424 23.6984 45.5127 23.1095 45.5127C19.3214 45.5127 18.4601 42.5684 18.4601 42.5684C17.5636 40.2393 16.2716 39.5977 16.2716 39.5977C14.5577 38.3936 16.2628 38.3496 16.3947 38.3496C16.4034 38.3496 16.4034 38.3496 16.4034 38.3496C18.381 38.5254 19.4181 40.4502 19.4181 40.4502C20.4025 42.1729 21.7208 42.665 22.8986 42.665C23.8214 42.665 24.6564 42.3662 25.1486 42.1377C25.3243 40.8369 25.8341 39.9492 26.3966 39.4395C22.0284 38.9297 17.4318 37.1982 17.4318 29.4639C17.4318 27.2578 18.1964 25.4561 19.4532 24.0498C19.2511 23.54 18.5743 21.4834 19.6466 18.7061C19.6466 18.7061 19.7872 18.6621 20.0861 18.6621C20.798 18.6621 22.4064 18.9346 25.0607 20.7803C26.6339 20.332 28.3126 20.1123 29.9913 20.1035C31.6613 20.1123 33.3488 20.332 34.922 20.7803C37.5763 18.9346 39.1847 18.6621 39.8966 18.6621C40.1954 18.6621 40.3361 18.7061 40.3361 18.7061C41.4083 21.4834 40.7316 23.54 40.5294 24.0498C41.7863 25.4648 42.5509 27.2666 42.5509 29.4639C42.5509 37.2158 37.9454 38.9209 33.5597 39.4219C34.2628 40.0459 34.8956 41.2764 34.8956 43.1572C34.8956 45.8555 34.8693 48.0352 34.8693 48.6943C34.8693 49.169 35.1417 49.7051 35.8712 49.7051C35.9767 49.7051 36.0997 49.6963 36.2228 49.6699C44.0538 47.0068 49.6876 39.4395 49.6876 30.5273C49.6876 19.3828 40.8722 10.3389 30.0001 10.3389Z" fill="black"/>
</svg>
