<svg width="48" height="50" viewBox="0 0 48 50" fill="none" xmlns="http://www.w3.org/2000/svg">
<g clip-path="url(#clip0)">
<path d="M47.0105 22.05L26.85 1.03158C26.2316 0.386842 25.3658 0 24.5 0C23.6342 0 22.7684 0.386842 22.15 1.03158L17.8211 5.54474L22.8921 10.8316C23.3868 10.5737 23.8816 10.4447 24.5 10.4447C26.6026 10.4447 28.2105 12.1211 28.2105 14.3132C28.2105 14.9579 28.0868 15.4737 27.8395 15.9895L32.7868 21.1474C33.2816 20.8895 33.7763 20.7605 34.3947 20.7605C36.4974 20.7605 38.1053 22.4368 38.1053 24.6289C38.1053 26.8211 36.4974 28.4974 34.3947 28.4974C32.2921 28.4974 30.6842 26.8211 30.6842 24.6289C30.6842 23.9842 30.8079 23.4684 31.0553 22.9526L26.1079 17.7947C25.9842 17.7947 25.8605 17.9237 25.7368 17.9237V31.3342C27.2211 31.85 28.2105 33.2684 28.2105 34.9447C28.2105 37.1368 26.6026 38.8132 24.5 38.8132C22.3974 38.8132 20.7895 37.1368 20.7895 34.9447C20.7895 33.2684 21.7789 31.85 23.2632 31.3342V17.7947C21.7789 17.2789 20.7895 15.8605 20.7895 14.1842C20.7895 13.5395 20.9132 13.0237 21.1605 12.5079L16.0895 7.22105L1.98947 22.05C1.37105 22.6947 1 23.5974 1 24.5C1 25.4026 1.37105 26.3053 1.98947 26.95L22.15 47.9684C22.7684 48.6132 23.6342 49 24.5 49C25.3658 49 26.2316 48.6132 26.85 47.9684L47.0105 26.95C47.629 26.3053 48 25.4026 48 24.5C48 23.5974 47.629 22.6947 47.0105 22.05Z" fill="#F4511E"/>
</g>
<defs>
<clipPath id="clip0">
<rect width="47.8088" height="50" fill="white"/>
</clipPath>
</defs>
</svg>
