<svg width="50" height="50" viewBox="0 0 50 50" fill="none" xmlns="http://www.w3.org/2000/svg">
<path d="M-0.307678 49.635H49.6923V0H-0.307678V49.635Z" fill="#3558A8"/>
<path opacity="0.102" d="M37.3877 22.2627H10.3029L9.01318 28.9312L32.5972 49.9999H48.7191V32.4105L37.3877 22.2627Z" fill="#010101"/>
<path d="M38.4207 22.0787L38.2341 21.4611C38.0869 21.0141 37.6698 20.8027 36.732 20.8027H32.7884C32.6975 20.8027 32.6068 20.8348 32.5882 20.9044L31.092 26.4572C31.0724 26.5275 31.0668 26.5774 31.077 26.612C31.0877 26.6478 31.263 26.6412 31.353 26.6412H32.719C32.8104 26.6412 32.9764 26.6466 33.0246 26.6314C33.0752 26.6151 33.0974 26.5092 33.116 26.4391L33.5988 24.4922L34.1886 22.3325C34.2078 22.2633 34.2972 22.2065 34.3877 22.2065L38.2941 22.2045C38.3844 22.2045 38.4414 22.1479 38.4207 22.0787Z" fill="white"/>
<path d="M42.9273 19.3437C42.8623 19.3446 41.6976 19.3437 41.6976 19.3437C41.6332 19.3437 41.5504 19.4254 41.5145 19.4882L39.356 23.2359C39.3192 23.2989 39.2775 23.2966 39.2632 23.2226L39.1037 22.4012C39.09 22.3267 39.0256 22.266 38.9603 22.266H37.5731C37.5092 22.266 37.4709 22.3289 37.4875 22.4024L38.1094 24.9753C38.1274 25.049 38.129 25.1692 38.113 25.243L37.8231 26.5463C37.8076 26.6202 37.8473 26.6425 37.9128 26.6425H39.2825C39.3468 26.6425 39.4134 26.6204 39.429 26.5463L39.7193 25.2247C39.7352 25.1511 39.7799 25.0508 39.8185 24.9895L43.341 19.4761C43.3807 19.4157 43.3749 19.3433 43.3107 19.3433L42.9273 19.3437Z" fill="white"/>
<path d="M26.6454 20.8027H24.8918C24.8024 20.8027 24.7109 20.8276 24.693 20.8973L24.1134 23.0339L23.5361 25.0797C23.5176 25.149 23.4281 25.1442 23.3378 25.1442H22.1854C21.0452 25.1442 21.1768 24.5768 21.4113 23.7263C21.414 23.7178 22.1425 20.8973 22.1425 20.8973C22.1585 20.8277 22.0995 20.8027 22.0101 20.8027H20.3393C20.249 20.8027 20.1595 20.8277 20.1419 20.8973L19.4698 23.724C19.1345 25.2524 19.1244 26.5973 21.3742 26.6417C21.4113 26.6428 24.9265 26.6417 24.9265 26.6417C25.0175 26.6417 25.1067 26.6181 25.1261 26.5493L25.889 23.7146L26.649 20.8681C26.6491 20.868 26.6761 20.8027 26.6454 20.8027Z" fill="white"/>
<path d="M11.9294 20.8027H10.8081C10.7544 20.8027 10.7001 20.8208 10.6882 20.8955L10.4859 22.1312C10.4743 22.2041 10.5088 22.2626 10.563 22.2626H11.6367C11.6909 22.2626 11.7447 22.1936 11.7561 22.1199L11.951 20.8749C11.951 20.8749 11.9666 20.8027 11.9294 20.8027Z" fill="white"/>
<path d="M10.3517 22.2627C10.2776 22.2627 10.2016 22.3255 10.1856 22.4031L9.97572 23.3876L9.50739 25.6611C9.50739 25.6611 9.25806 26.87 9.23412 26.9456C9.23412 26.9456 9.02424 27.8182 8.52293 27.7832C8.2897 27.7669 8.0231 27.71 8.0231 27.71H8.02241C7.88239 27.665 7.87258 27.8195 7.85541 27.8967L7.54613 29.3133C7.52837 29.3907 7.57625 29.4605 7.65023 29.4617C7.65023 29.4617 8.3207 29.562 8.79394 29.562H8.87175C10.0413 29.562 10.659 28.8319 11.054 26.8496L11.5168 24.5552L11.9509 22.4204C11.9669 22.3427 11.9229 22.2706 11.8481 22.2706" fill="white"/>
<path d="M29.9184 23.2423C29.9184 23.3194 29.7301 23.3047 29.7301 23.3047L28.2307 23.2906C28.1789 23.2906 28.1641 23.1967 28.1605 23.1297C28.1604 23.1273 28.1643 23.0491 28.1686 23.0298C28.2845 22.51 28.6303 22.2134 29.1785 22.2134C29.7953 22.2134 29.927 22.6086 29.927 23.0471L29.9184 23.2423ZM29.4113 20.8027C27.4881 20.8027 27.0288 22.3393 26.7735 23.8621C26.518 25.4148 26.5399 26.6422 28.5299 26.6422H28.6018C29.3913 26.6422 30.3505 26.6422 30.3505 26.6422C30.4044 26.6408 30.4585 26.5771 30.4692 26.5081L30.6648 25.5233C30.6761 25.4534 30.6397 25.4329 30.5853 25.4329H28.7953C28.147 25.4329 27.9149 25.1748 27.9376 24.5951C27.9372 24.5293 27.9956 24.3614 28.0504 24.3614H30.8074C30.9285 24.3605 30.9323 24.2688 30.9323 24.2688C31.213 22.6317 31.2314 20.8027 29.4113 20.8027Z" fill="white"/>
<path d="M17.041 24.0652L16.7466 25.021C16.7263 25.0881 16.6433 25.1328 16.5705 25.1328H15.0523C13.9003 25.1328 13.6202 24.2866 13.9003 23.0241C14.1815 21.7334 14.7384 20.9348 15.8715 20.854C17.4207 20.7429 17.7377 21.7828 17.3621 22.9778L17.041 24.0652ZM18.3901 25.078C18.3901 25.078 19.1053 23.4269 19.2677 22.4725C19.4898 21.1955 18.8175 19.3433 16.2183 19.3433C13.6345 19.3433 12.5134 21.1114 12.0842 23.034C11.6568 24.9703 12.2163 26.6561 14.7859 26.6425L18.7077 26.6402C18.7799 26.64 18.8552 26.5844 18.8737 26.5183L19.2045 25.3218C19.2225 25.2542 19.1776 25.1993 19.1042 25.1991L18.7884 25.1968L18.4725 25.1956C18.4105 25.1949 18.3748 25.1567 18.383 25.1059C18.3841 25.0967 18.3854 25.0875 18.3901 25.078Z" fill="white"/>
</svg>
