<svg width="50" height="50" viewBox="0 0 50 50" fill="none" xmlns="http://www.w3.org/2000/svg">
<path d="M0 50V0H50V50H0Z" fill="#FFD600"/>
<path d="M35.9204 39.6837C36.7447 41.0887 37.6404 42.435 39.538 42.435C41.1317 42.435 41.9679 41.6037 41.9679 40.4537C41.9679 39.0775 41.1031 38.5888 39.3498 37.7875L38.3885 37.3575C35.6143 36.1225 33.7692 34.575 33.7692 31.3063C33.7692 28.2938 35.9669 26.0012 39.401 26.0012C41.8464 26.0012 43.6034 26.89 44.8708 29.2175L41.8762 31.2262C41.2175 29.9912 40.5052 29.505 39.401 29.505C38.2741 29.505 37.5606 30.2512 37.5606 31.2262C37.5606 32.4312 38.2753 32.9187 39.9251 33.665L40.8864 34.095C44.1561 35.5562 46 37.0487 46 40.4037C46 44.0187 43.2794 46 39.6273 46C36.055 46 34.0265 44.1188 32.8973 41.79L35.9204 39.6837ZM22.1196 39.7862C22.7224 40.9187 23.6384 41.79 24.9558 41.79C26.216 41.79 26.9415 41.2675 26.9415 39.2363V26H30.9116V39.8763C30.9116 44.085 28.5853 46 25.1881 46C22.1185 46 19.9029 43.8175 19 41.79L22.1196 39.7862Z" fill="#000001"/>
</svg>
