<svg width="51" height="50" viewBox="0 0 51 50" fill="none" xmlns="http://www.w3.org/2000/svg">
<g clip-path="url(#clip0)">
<path d="M25.5 30C27.9853 30 30 27.9853 30 25.5C30 23.0147 27.9853 21 25.5 21C23.0147 21 21 23.0147 21 25.5C21 27.9853 23.0147 30 25.5 30Z" fill="#39C1D7"/>
<path d="M26 30C23.2431 30 21 27.7569 21 25C21 22.2431 23.2431 20 26 20C28.7569 20 31 22.2431 31 25C31 27.7569 28.7569 30 26 30ZM26 21.25C23.9319 21.25 22.25 22.9319 22.25 25C22.25 27.0681 23.9319 28.75 26 28.75C28.0681 28.75 29.75 27.0681 29.75 25C29.75 22.9319 28.0681 21.25 26 21.25Z" fill="#1F212B"/>
<path d="M50 24.9997C50 21.5717 45.8802 18.6048 39.4885 16.8392C41.1316 10.4017 40.6257 5.33947 37.6895 3.62168C36.5314 2.94388 35.1263 2.82018 33.5137 3.25249C31.0841 3.90416 28.3 5.80941 25.5 8.60799C22.7 5.80941 19.9159 3.90479 17.4863 3.25249C15.8737 2.81954 14.4686 2.94388 13.3105 3.62168C10.3743 5.33947 9.86836 10.401 11.5115 16.8392C5.11982 18.6048 1 21.5717 1 24.9997C1 28.4276 5.11982 31.3945 11.5115 33.1608C9.86836 39.5983 10.3743 44.6605 13.3105 46.3783C14.0181 46.7921 14.8174 47.0006 15.7006 47C16.2625 47 16.8588 46.9158 17.4863 46.7475C19.9159 46.0952 22.7 44.1906 25.5 41.392C28.3 44.1906 31.0841 46.0952 33.5137 46.7475C34.1412 46.9158 34.7375 47 35.2994 47C36.1826 47 36.9819 46.7928 37.6895 46.3783C40.6257 44.6605 41.131 39.5983 39.4885 33.1608C45.8802 31.3945 50 28.4276 50 24.9997ZM34.0075 5.09972C34.4689 4.97666 34.8965 4.91417 35.2905 4.91417C35.8377 4.91417 36.3188 5.03404 36.7267 5.27316C38.6944 6.42473 39.0959 10.642 37.6304 16.375C35.6112 15.9198 33.4081 15.5773 31.0669 15.3656C29.693 13.3807 28.2637 11.5736 26.8236 9.99102C29.3805 7.42326 31.8891 5.66849 34.0075 5.09972ZM32.3441 29.0161C31.5938 30.3335 30.8041 31.5954 29.994 32.8031C28.5558 32.9108 27.0565 32.9701 25.5 32.9701C23.9435 32.9701 22.4442 32.9108 21.0066 32.8031C20.1965 31.5954 19.4068 30.3335 18.6565 29.0161C17.8808 27.6542 17.1846 26.3126 16.561 25.0003C17.1846 23.6881 17.8808 22.3465 18.6565 20.9838C19.4075 19.6659 20.1965 18.404 21.0073 17.1963C22.4448 17.0885 23.9435 17.0292 25.5 17.0292C27.0565 17.0292 28.5552 17.0885 29.9934 17.1963C30.8035 18.404 31.5932 19.6665 32.3441 20.9838C33.1198 22.3458 33.816 23.6874 34.4396 25.0003C33.816 26.3126 33.1198 27.6542 32.3441 29.0161ZM35.4553 27.2601C36.1177 28.8293 36.665 30.3399 37.1079 31.7758C35.6602 32.0991 34.0973 32.3688 32.4281 32.5684C32.9639 31.7229 33.4921 30.8583 34.0018 29.9637C34.5179 29.0589 34.9996 28.1566 35.4553 27.2601ZM25.5 38.6177C24.4589 37.4642 23.4197 36.187 22.4047 34.8052C23.4178 34.8543 24.4487 34.883 25.5 34.883C26.5513 34.883 27.5822 34.8543 28.5953 34.8052C27.5803 36.1863 26.5411 37.4635 25.5 38.6177ZM18.5713 32.5684C16.9027 32.3688 15.3392 32.0991 13.8915 31.7758C14.3344 30.3399 14.8816 28.8287 15.5441 27.2601C15.9997 28.1566 16.4821 29.0589 16.9975 29.9637C17.5079 30.8589 18.0355 31.7235 18.5713 32.5684ZM15.5447 22.7399C14.8823 21.1707 14.3344 19.6595 13.8921 18.2229C15.3398 17.8996 16.9034 17.6299 18.5725 17.4303C18.0361 18.2758 17.5085 19.1411 16.9988 20.0357C16.4821 20.9411 16.0004 21.8434 15.5447 22.7399ZM25.5 11.3823C26.5411 12.5358 27.5803 13.813 28.5953 15.1948C27.5822 15.145 26.5513 15.1163 25.5 15.1163C24.4487 15.1163 23.4178 15.145 22.4047 15.1941C23.4197 13.813 24.4589 12.5358 25.5 11.3823ZM34.0018 20.0363C33.4921 19.1411 32.9639 18.2765 32.4281 17.4309C34.0973 17.6305 35.6602 17.9002 37.1085 18.2235C36.6656 19.6601 36.1184 21.1707 35.4559 22.7405C34.9996 21.8434 34.5179 20.9411 34.0018 20.0363ZM14.2733 5.27316C14.6818 5.03404 15.1616 4.91417 15.7095 4.91417C16.1028 4.91417 16.5317 4.97666 16.9925 5.09972C19.1109 5.66849 21.6195 7.42263 24.1764 9.99038C22.7363 11.573 21.307 13.3807 19.9331 15.365C17.5919 15.5767 15.3882 15.9191 13.3696 16.3744C11.9041 10.6414 12.3056 6.42409 14.2733 5.27316ZM2.90909 24.9997C2.90909 22.7067 6.34609 20.2557 12.0314 18.6864C12.648 20.7007 13.4575 22.8222 14.4534 24.9997C13.4575 27.1772 12.648 29.2986 12.0314 31.3129C6.34609 29.7437 2.90909 27.2926 2.90909 24.9997ZM16.9925 44.8996C15.8896 45.1942 14.9752 45.1362 14.2733 44.7268C12.3056 43.5753 11.9047 39.3579 13.3696 33.625C15.3882 34.0802 17.5919 34.4226 19.9325 34.6343C21.3064 36.6193 22.7356 38.4264 24.1757 40.0096C21.6195 42.5767 19.1109 44.3309 16.9925 44.8996ZM36.7267 44.7268C36.0248 45.1375 35.111 45.1949 34.0075 44.8996C31.8891 44.3309 29.3805 42.5767 26.8236 40.009C28.2637 38.4264 29.693 36.6187 31.0669 34.6337C33.4081 34.422 35.6112 34.0796 37.6297 33.6243C39.0959 39.3579 38.6944 43.5753 36.7267 44.7268ZM38.9686 31.3129C38.352 29.2986 37.5425 27.1772 36.5466 24.9997C37.5425 22.8222 38.352 20.7001 38.9686 18.6864C44.6539 20.2557 48.0909 22.7067 48.0909 24.9997C48.0909 27.2926 44.6539 29.7437 38.9686 31.3129Z" fill="#39C1D7"/>
<path d="M16.125 48C15.1821 48 14.3192 47.7744 13.5603 47.3296C10.591 45.5908 9.85321 40.7241 11.5231 33.9521C4.83013 32.0436 1 28.9717 1 25.5005C1 22.0294 4.83013 18.9574 11.5224 17.0489C9.85321 10.277 10.591 5.41031 13.5603 3.67152C14.8026 2.94258 16.2994 2.8063 18.0109 3.26655C20.3942 3.90678 23.1519 5.72207 26 8.52405C28.8487 5.72207 31.6064 3.90678 33.9891 3.26655C35.7 2.80759 37.1974 2.94386 38.4404 3.67152C41.409 5.41031 42.1468 10.277 40.4776 17.0489C47.1699 18.9574 51 22.0294 51 25.5005C51 28.9717 47.1699 32.0436 40.4776 33.9521C42.1468 40.7241 41.4096 45.5901 38.4404 47.3296C37.2051 48.0527 35.693 48.1922 33.9897 47.7345C31.6058 47.0943 28.8481 45.279 26 42.4777C23.1519 45.279 20.3942 47.0949 18.0109 47.7345C17.3551 47.9106 16.7218 48 16.1288 48C16.1276 48 16.1263 48 16.125 48ZM16.1308 3.64452C15.2968 3.64452 14.5449 3.83865 13.8827 4.2269C11.175 5.8127 10.5532 10.6601 12.2192 17.1942C12.2622 17.3639 12.1622 17.5375 11.9936 17.5837C5.51154 19.3759 1.64103 22.336 1.64103 25.5005C1.64103 28.6651 5.51154 31.6252 11.9942 33.4173C12.1628 33.4636 12.2628 33.6372 12.2199 33.8069C10.5532 40.341 11.175 45.189 13.8827 46.7742C14.5429 47.1605 15.2974 47.3566 16.125 47.3566C16.1263 47.3566 16.1276 47.3566 16.1288 47.3566C16.666 47.3566 17.2429 47.2749 17.8449 47.1136C20.1827 46.4856 22.925 44.6478 25.7737 41.7976C25.8987 41.6729 26.1013 41.6729 26.2263 41.7976C29.075 44.6471 31.8173 46.4849 34.1551 47.1136C35.6897 47.5243 37.0301 47.4099 38.1173 46.7742C40.825 45.1884 41.4468 40.341 39.7801 33.8069C39.7372 33.6372 39.8372 33.4636 40.0058 33.4173C46.4885 31.6252 50.359 28.6651 50.359 25.5005C50.359 22.336 46.4885 19.3759 40.0058 17.5837C39.8372 17.5375 39.7372 17.3639 39.7801 17.1942C41.4462 10.6601 40.8244 5.81206 38.1167 4.2269C37.0276 3.5886 35.6942 3.47482 34.1545 3.8875C31.8167 4.51552 29.075 6.3533 26.2256 9.2035C26.1006 9.3282 25.8981 9.3282 25.7731 9.2035C22.9237 6.3533 20.1821 4.51552 17.8442 3.8875C17.241 3.72551 16.6692 3.64452 16.1308 3.64452ZM35.8628 46.0697C35.4378 46.0697 34.9788 46.0041 34.4872 45.8723C32.3519 45.2983 29.8 43.5653 27.1064 40.8584C26.9859 40.7369 26.9814 40.5415 27.0962 40.4149C28.5481 38.8182 29.9769 37.0061 31.3442 35.0295C31.3981 34.9511 31.484 34.9009 31.5788 34.8926C33.8942 34.683 36.1045 34.343 38.1487 33.8814C38.316 33.8435 38.4865 33.9464 38.5295 34.1154C40.0269 39.9797 39.6212 44.4054 37.4705 45.6647C37.0096 45.9347 36.4718 46.0697 35.8628 46.0697ZM27.7763 40.62C30.309 43.123 32.6821 44.7217 34.6526 45.2514C35.6776 45.5258 36.5173 45.4783 37.1474 45.1099C38.9776 44.0377 39.2994 39.9206 37.9846 34.5763C36.0436 34.9999 33.9609 35.3168 31.7859 35.5193C30.4936 37.3783 29.1462 39.092 27.7763 40.62ZM16.1372 46.0697C15.5282 46.0697 14.9904 45.9347 14.5295 45.6653C12.3788 44.4054 11.9724 39.9797 13.4705 34.1154C13.5135 33.947 13.684 33.8461 13.8513 33.8814C15.8949 34.343 18.1051 34.683 20.4212 34.8926C20.5154 34.9009 20.6019 34.9511 20.6558 35.0295C22.0231 37.0061 23.4519 38.8182 24.9038 40.4149C25.0192 40.5415 25.0147 40.7369 24.8936 40.8584C22.2 43.5646 19.6481 45.2983 17.5135 45.8723C17.0212 46.0034 16.5615 46.0697 16.1372 46.0697ZM14.0154 34.5763C12.7006 39.9199 13.0224 44.0377 14.8526 45.1099C15.4821 45.4776 16.3218 45.5258 17.3474 45.2514C19.3179 44.7217 21.691 43.1224 24.2237 40.62C22.8545 39.092 21.5071 37.3783 20.2147 35.5193C18.0397 35.3168 15.9564 34.9999 14.0154 34.5763ZM26 39.5497C25.9096 39.5497 25.8231 39.5111 25.7622 39.4436C24.6962 38.2615 23.6404 36.9598 22.6237 35.5752C22.5506 35.4756 22.541 35.3419 22.5994 35.2326C22.6577 35.1233 22.7667 35.0565 22.8974 35.0635C25.0167 35.167 26.9833 35.167 29.1026 35.0635C29.2308 35.0558 29.3423 35.1233 29.4006 35.2326C29.459 35.3419 29.45 35.4749 29.3763 35.5752C28.3596 36.9592 27.3038 38.2609 26.2378 39.4436C26.1769 39.5111 26.0904 39.5497 26 39.5497ZM23.5429 35.7366C24.3449 36.8004 25.1692 37.8103 26 38.7475C26.8314 37.8103 27.6551 36.8011 28.4571 35.7366C26.7827 35.8008 25.2173 35.8008 23.5429 35.7366ZM26 33.857C24.4814 33.857 22.9506 33.8004 21.4494 33.6879C21.3513 33.6809 21.2622 33.6288 21.2071 33.5465C20.35 32.268 19.5494 30.9766 18.8276 29.709C18.0712 28.3797 17.3571 27.0105 16.7058 25.6387C16.6641 25.5513 16.6641 25.4498 16.7058 25.3623C17.3571 23.9906 18.0712 22.6214 18.8276 21.2921C19.5487 20.0258 20.3494 18.7344 21.2077 17.4539C21.2622 17.3723 21.3519 17.3202 21.45 17.3125C24.4526 17.0875 27.5481 17.0875 30.55 17.3125C30.6481 17.3196 30.7372 17.3716 30.7923 17.4539C31.6506 18.7344 32.4513 20.0258 33.1724 21.2921C33.9288 22.6214 34.643 23.9906 35.2942 25.3623C35.3359 25.4498 35.3359 25.5513 35.2942 25.6387C34.643 27.0105 33.9288 28.3797 33.1724 29.709C32.4506 30.9766 31.65 32.268 30.793 33.5465C30.7385 33.6282 30.6487 33.6802 30.5506 33.6879C29.0494 33.8004 27.5186 33.857 26 33.857ZM21.6526 33.058C24.5237 33.265 27.4763 33.265 30.3468 33.058C31.1628 31.8347 31.9256 30.6012 32.6154 29.3895C33.3385 28.1187 34.0224 26.8112 34.6494 25.5005C34.0224 24.1899 33.3385 22.8817 32.6154 21.6116C31.9263 20.4012 31.1635 19.1676 30.3462 17.9424C27.475 17.7355 24.5231 17.7355 21.6519 17.9424C20.8353 19.1676 20.0718 20.4012 19.3827 21.6116C18.6596 22.8824 17.9756 24.1899 17.3487 25.5005C17.9756 26.8112 18.6596 28.1193 19.3827 29.3895C20.0737 30.6018 20.8365 31.8347 21.6526 33.058ZM32.9795 33.4527C32.8705 33.4527 32.7673 33.3968 32.7083 33.3029C32.6423 33.1975 32.6429 33.0638 32.709 32.959C33.3038 32.0199 33.8199 31.1649 34.2859 30.346C34.7756 29.4859 35.2654 28.5731 35.7429 27.634C35.7994 27.5228 35.918 27.4566 36.0397 27.4592C36.1641 27.4637 36.275 27.5395 36.3237 27.6552C36.9744 29.1973 37.5378 30.7394 37.9994 32.2378C38.0263 32.3233 38.0154 32.4165 37.9705 32.4936C37.9256 32.5714 37.85 32.6267 37.7628 32.646C36.2564 32.9834 34.6596 33.2541 33.0173 33.4508C33.0045 33.452 32.9917 33.4527 32.9795 33.4527ZM35.9974 28.5416C35.6167 29.2732 35.2295 29.9847 34.8429 30.6642C34.4692 31.3211 34.0635 32.0006 33.6122 32.727C34.875 32.5585 36.1058 32.3458 37.2833 32.0925C36.9135 30.9265 36.4827 29.7366 35.9974 28.5416ZM19.0205 33.4527C19.0077 33.4527 18.9949 33.452 18.9821 33.4508C17.3404 33.2534 15.7436 32.9828 14.2372 32.6453C14.15 32.626 14.075 32.5707 14.0295 32.493C13.9846 32.4152 13.9744 32.3226 14.0006 32.2371C14.4622 30.7381 15.0256 29.1967 15.6763 27.6546C15.725 27.5395 15.8359 27.463 15.9603 27.4585C16.0769 27.4463 16.2006 27.5222 16.2571 27.6334C16.7346 28.5725 17.2244 29.4853 17.7141 30.3454C18.1808 31.1643 18.6968 32.0192 19.291 32.9584C19.3577 33.0631 19.3577 33.1968 19.2917 33.3023C19.2327 33.3968 19.1301 33.4527 19.0205 33.4527ZM14.7173 32.0925C15.8949 32.3458 17.1256 32.5585 18.3885 32.727C17.9365 32.0006 17.5314 31.3211 17.1577 30.6642C16.7705 29.9847 16.384 29.2725 16.0032 28.5416C15.5173 29.7366 15.0865 30.9265 14.7173 32.0925ZM39.5673 32.1864C39.4295 32.1864 39.3032 32.097 39.2609 31.9588C38.6359 29.9153 37.8199 27.7876 36.8365 25.6349C36.7974 25.55 36.7974 25.4517 36.8365 25.3668C37.8199 23.2141 38.6359 21.0858 39.2615 19.0416C39.3128 18.8751 39.4885 18.7819 39.6532 18.8263C45.466 20.4327 49.0769 22.9897 49.0769 25.5005C49.0769 28.0113 45.4654 30.5684 39.6519 32.1748C39.6237 32.1825 39.5949 32.1864 39.5673 32.1864ZM37.4801 25.5005C38.4006 27.5286 39.1744 29.5354 39.7808 31.4709C45.0494 29.9648 48.4359 27.6359 48.4359 25.5005C48.4359 23.3651 45.0494 21.0363 39.7808 19.5302C39.1737 21.4663 38.4 23.4731 37.4801 25.5005ZM12.4327 32.1864C12.4045 32.1864 12.3763 32.1825 12.3474 32.1748C6.53462 30.5684 2.92308 28.0113 2.92308 25.5005C2.92308 22.9897 6.53397 20.4327 12.3474 18.8263C12.5128 18.7819 12.6878 18.8751 12.7391 19.0416C13.3647 21.0858 14.1808 23.2141 15.1641 25.3668C15.2032 25.4517 15.2032 25.5494 15.1641 25.6349C14.1801 27.7883 13.3647 29.916 12.7397 31.9588C12.6974 32.097 12.5705 32.1864 12.4327 32.1864ZM12.2192 19.5302C6.95064 21.0363 3.5641 23.3651 3.5641 25.5005C3.5641 27.6359 6.95064 29.9648 12.2192 31.4709C12.8263 29.5354 13.5994 27.5292 14.5199 25.5005C13.6 23.4731 12.8263 21.4663 12.2192 19.5302ZM36.0288 23.5445C35.9083 23.5445 35.7981 23.477 35.7429 23.369C35.2577 22.4125 34.7808 21.5248 34.2865 20.6564C33.8212 19.8387 33.3051 18.9838 32.709 18.0427C32.6423 17.9379 32.6423 17.8042 32.7083 17.6988C32.7744 17.594 32.8923 17.5362 33.018 17.551C34.6609 17.7483 36.2577 18.0189 37.7641 18.3558C37.8513 18.375 37.9263 18.4303 37.9718 18.5081C38.0167 18.5859 38.0269 18.6784 38.0006 18.7639C37.5385 20.2655 36.9744 21.8076 36.325 23.3478C36.2763 23.4628 36.1654 23.5393 36.041 23.5438C36.0359 23.5445 36.0321 23.5445 36.0288 23.5445ZM34.8423 20.3375C35.234 21.0253 35.6147 21.7247 35.9968 22.4601C36.4814 21.267 36.9122 20.0759 37.2821 18.9086C36.1045 18.6553 34.8737 18.4425 33.6103 18.2741C34.0641 19.0018 34.4692 19.6812 34.8423 20.3375ZM15.9712 23.5445C15.9673 23.5445 15.9635 23.5445 15.9596 23.5445C15.8353 23.54 15.7244 23.4641 15.6756 23.3484C15.0263 21.8083 14.4622 20.2662 14 18.7646C13.9731 18.6791 13.984 18.5859 14.0288 18.5087C14.0737 18.431 14.1494 18.3757 14.2365 18.3564C15.7429 18.0189 17.3397 17.7483 18.9827 17.5516C19.1077 17.5388 19.2263 17.5947 19.2923 17.6995C19.3583 17.8049 19.3577 17.9386 19.2917 18.0434C18.6955 18.9844 18.1795 19.8394 17.7141 20.657C17.2199 21.5254 16.7429 22.4125 16.2577 23.3696C16.2019 23.477 16.0917 23.5445 15.9712 23.5445ZM14.7173 18.9086C15.0872 20.0759 15.5186 21.267 16.0026 22.4601C16.3853 21.7247 16.7654 21.0253 17.1571 20.3375C17.5308 19.6812 17.9359 19.0018 18.3885 18.2741C17.1256 18.4425 15.8949 18.6553 14.7173 18.9086ZM38.2199 17.1274C38.1962 17.1274 38.1731 17.1248 38.1494 17.1196C36.1058 16.6581 33.8949 16.3181 31.5788 16.1085C31.4846 16.1002 31.3981 16.05 31.3442 15.9716C29.9769 13.9943 28.5474 12.1829 27.0962 10.5868C26.9808 10.4602 26.9853 10.2648 27.1064 10.1433C29.7994 7.43707 32.3519 5.70278 34.4872 5.1294C35.6853 4.808 36.691 4.88063 37.4705 5.33638C39.6212 6.59628 40.0276 11.022 38.5301 16.8863C38.4929 17.0303 38.3635 17.1274 38.2199 17.1274ZM31.7853 15.4818C33.9603 15.6843 36.0436 16.0012 37.9846 16.4248C39.2994 11.0811 38.9776 6.96332 37.1468 5.89112C36.5192 5.52408 35.6782 5.47587 34.6526 5.74971C32.6821 6.27938 30.3083 7.87868 27.7756 10.3818C29.1455 11.9084 30.493 13.6221 31.7853 15.4818ZM13.7801 17.1274C13.6365 17.1274 13.5071 17.0303 13.4699 16.8857C11.9724 11.0214 12.3782 6.59628 14.5288 5.33638C14.5288 5.33638 14.5288 5.33638 14.5295 5.33638C15.309 4.88063 16.316 4.808 17.5122 5.1294C19.6481 5.70342 22.2 7.43707 24.8929 10.1433C25.0135 10.2648 25.018 10.4602 24.9032 10.5868C23.4519 12.1829 22.0224 13.995 20.6551 15.9716C20.6013 16.05 20.5154 16.1002 20.4205 16.1085C18.1051 16.3181 15.8942 16.6581 13.85 17.1196C13.8269 17.1248 13.8038 17.1274 13.7801 17.1274ZM14.8526 5.89112C13.0224 6.96332 12.7006 11.0811 14.0147 16.4248C15.9558 16.0012 18.0391 15.6843 20.2141 15.4818C21.5071 13.6221 22.8538 11.9084 24.2231 10.3811C21.6904 7.87803 19.3173 6.27874 17.3462 5.74906C16.325 5.47587 15.4827 5.52344 14.8526 5.89112ZM29.1179 15.9369C29.1128 15.9369 29.1077 15.9369 29.1026 15.9369C26.9833 15.8334 25.0173 15.8334 22.8981 15.9369C22.766 15.9401 22.6583 15.8765 22.6 15.7678C22.5417 15.6585 22.5506 15.5255 22.6244 15.4252C23.6417 14.04 24.6974 12.7383 25.7628 11.5568C25.8846 11.4225 26.1167 11.4225 26.2385 11.5568C27.3032 12.7376 28.359 14.0393 29.3769 15.4252C29.45 15.5248 29.4596 15.6585 29.4013 15.7678C29.3442 15.872 29.2353 15.9369 29.1179 15.9369ZM26 15.2157C26.7962 15.2157 27.6199 15.2324 28.4571 15.2652C27.6545 14.2 26.8301 13.1902 26 12.2543C25.1699 13.1908 24.3455 14.2 23.5429 15.2652C24.3801 15.2324 25.2038 15.2157 26 15.2157Z" fill="#1F212B"/>
</g>
<defs>
<clipPath id="clip0">
<rect width="50" height="50" fill="white" transform="translate(0.538452)"/>
</clipPath>
</defs>
</svg>
