<svg width="49" height="49" viewBox="0 0 49 49" fill="none" xmlns="http://www.w3.org/2000/svg">
<path d="M15.2028 22.9006C15.2028 23.4582 15.2608 23.9093 15.3622 24.2409C15.478 24.5725 15.622 24.9339 15.8247 25.3253C15.8972 25.4458 15.9261 25.5662 15.9261 25.6718C15.9261 25.8222 15.8392 25.9725 15.6518 26.1238L14.7412 26.7561C14.6108 26.8467 14.4814 26.8916 14.3655 26.8916C14.2207 26.8916 14.0767 26.8159 13.9319 26.6805C13.7291 26.4545 13.5562 26.2135 13.4114 25.9725C13.2666 25.7166 13.1226 25.4308 12.9633 25.0843C11.8363 26.4694 10.4196 27.1624 8.71421 27.1624C7.5003 27.1624 6.53171 26.801 5.82383 26.0781C5.11594 25.3552 4.75476 24.3913 4.75476 23.1864C4.75476 21.9069 5.18836 20.8673 6.07005 20.0847C6.95174 19.302 8.12219 18.9097 9.61038 18.9097C10.1019 18.9097 10.6079 18.9545 11.142 19.0302C11.6761 19.1058 12.2256 19.2263 12.804 19.3617V18.2624C12.804 17.1183 12.5732 16.3197 12.1251 15.8527C11.6625 15.3857 10.8822 15.1597 9.7697 15.1597C9.26368 15.1597 8.74408 15.2195 8.20909 15.3559C7.6741 15.4913 7.15451 15.6566 6.64849 15.8677C6.41766 15.9732 6.24385 16.033 6.14247 16.0638C6.04108 16.0937 5.96866 16.1087 5.91164 16.1087C5.70887 16.1087 5.60839 15.9583 5.60839 15.6417V14.9038C5.60839 14.6628 5.63735 14.4826 5.70977 14.377C5.78219 14.2715 5.91254 14.166 6.11441 14.0604C6.62043 13.7896 7.22692 13.5635 7.93571 13.3823C8.6436 13.1862 9.39493 13.0965 10.1897 13.0965C11.9096 13.0965 13.167 13.5028 13.9763 14.3163C14.7711 15.1298 15.1757 16.3646 15.1757 18.0205V22.8997H15.2028V22.9006ZM9.33519 25.1889C9.81224 25.1889 10.3038 25.0983 10.8234 24.9181C11.3439 24.7378 11.8064 24.4062 12.1966 23.9542C12.4274 23.6684 12.6012 23.3517 12.6881 22.9903C12.775 22.6288 12.833 22.1917 12.833 21.6799V21.0476C12.4139 20.9421 11.9658 20.8515 11.5032 20.7917C11.0406 20.7319 10.5925 20.7011 10.1445 20.7011C9.17587 20.7011 8.46799 20.8972 7.99093 21.3035C7.51388 21.7098 7.28305 22.2823 7.28305 23.0351C7.28305 23.7431 7.45685 24.2699 7.81804 24.6313C8.16474 25.0086 8.67076 25.1889 9.33519 25.1889ZM20.9401 26.8159C20.6803 26.8159 20.5065 26.7711 20.3907 26.6655C20.2748 26.5749 20.1743 26.3648 20.0874 26.0781L16.691 14.4377C16.6041 14.137 16.5607 13.9409 16.5607 13.8353C16.5607 13.5944 16.6765 13.4589 16.9074 13.4589H18.3241C18.5983 13.4589 18.7866 13.5038 18.888 13.6093C19.0039 13.6999 19.0899 13.91 19.1768 14.1968L21.6046 24.1662L23.8586 14.1968C23.931 13.896 24.0179 13.6999 24.1329 13.6093C24.2487 13.5187 24.4506 13.4589 24.7113 13.4589H25.8673C26.1416 13.4589 26.3298 13.5038 26.4457 13.6093C26.5616 13.6999 26.6621 13.91 26.72 14.1968L29.003 24.2867L31.5032 14.1968C31.5901 13.896 31.6915 13.6999 31.792 13.6093C31.9078 13.5187 32.0952 13.4589 32.3559 13.4589H33.7002C33.931 13.4589 34.0614 13.5794 34.0614 13.8353C34.0614 13.911 34.0469 13.9857 34.0324 14.0763C34.0179 14.1669 33.9889 14.2874 33.931 14.4527L30.4486 26.093C30.3617 26.3938 30.2603 26.5899 30.1454 26.6805C30.0304 26.7711 29.8421 26.8309 29.5959 26.8309H28.353C28.0787 26.8309 27.8905 26.786 27.7746 26.6805C27.6587 26.5749 27.5582 26.3797 27.5003 26.0781L25.2608 16.3646L23.0357 26.0631C22.9633 26.3639 22.8764 26.56 22.7615 26.6655C22.6456 26.7711 22.4437 26.8159 22.183 26.8159H20.9401ZM39.5099 27.2222C38.7586 27.2222 38.0072 27.1316 37.2849 26.9513C36.5625 26.7711 35.9985 26.575 35.6229 26.3489C35.392 26.2135 35.2327 26.0631 35.1748 25.9277C35.1168 25.7923 35.0879 25.6419 35.0879 25.5065V24.7387C35.0879 24.4221 35.2037 24.2717 35.4201 24.2717C35.507 24.2717 35.5939 24.2867 35.6799 24.3166C35.7668 24.3464 35.8962 24.4072 36.0411 24.4669C36.5326 24.693 37.0667 24.8732 37.6307 24.9937C38.2091 25.1142 38.7721 25.174 39.3506 25.174C40.2612 25.174 40.9691 25.0086 41.4606 24.6771C41.9522 24.3455 42.212 23.8636 42.212 23.2462C42.212 22.825 42.0816 22.4785 41.8218 22.1917C41.562 21.9059 41.0705 21.65 40.3626 21.409L38.267 20.731C37.2124 20.3845 36.4321 19.8726 35.9551 19.1946C35.478 18.5324 35.2327 17.7945 35.2327 17.0109C35.2327 16.3786 35.3631 15.821 35.6229 15.339C35.8827 14.8571 36.2303 14.4359 36.663 14.1043C37.0966 13.7578 37.5881 13.5019 38.1656 13.3216C38.7441 13.1423 39.3506 13.0667 39.9869 13.0667C40.3047 13.0667 40.6369 13.0816 40.9555 13.1264C41.2878 13.1713 41.591 13.232 41.8952 13.2917C42.1839 13.3674 42.4591 13.4421 42.7189 13.5327C42.9787 13.6233 43.1815 13.713 43.3263 13.8036C43.5291 13.9241 43.673 14.0445 43.7599 14.18C43.8468 14.3005 43.8903 14.4658 43.8903 14.6768V15.3848C43.8903 15.7014 43.7744 15.8668 43.5581 15.8668C43.4422 15.8668 43.2548 15.807 43.0086 15.6865C42.1848 15.2952 41.2597 15.099 40.2341 15.099C39.4103 15.099 38.7604 15.2344 38.3123 15.5202C37.8642 15.806 37.6334 16.2432 37.6334 16.8605C37.6334 17.2817 37.7782 17.6432 38.067 17.9299C38.3557 18.2157 38.8907 18.5025 39.6565 18.7584L41.7087 19.4365C42.7488 19.783 43.501 20.2649 43.9482 20.8823C44.3954 21.4996 44.6126 22.2076 44.6126 22.9903C44.6126 23.6376 44.4823 24.225 44.237 24.7369C43.9772 25.2487 43.6296 25.7007 43.1824 26.0622C42.7343 26.4386 42.1993 26.7094 41.5783 26.9056C40.9257 27.1167 40.2467 27.2222 39.5099 27.2222Z" fill="#252F3E"/>
<path d="M42.7396 33.8159C38.0048 37.3328 31.1252 39.1999 25.2093 39.1999C16.9197 39.1999 9.44954 36.1174 3.80773 30.9937C3.36147 30.5888 3.76446 30.0386 4.29727 30.3572C10.3998 33.9173 17.9267 36.0743 25.7132 36.0743C30.9665 36.0743 36.7381 34.9747 42.0482 32.7162C42.8406 32.3545 43.5168 33.2369 42.7396 33.8159ZM44.7113 31.5583C44.1064 30.7764 40.7103 31.1822 39.1705 31.3698C38.7098 31.4272 38.6377 31.0224 39.0551 30.7181C41.7606 28.8079 46.2079 29.3573 46.7262 29.9946C47.2446 30.6463 46.582 35.1183 44.0496 37.2601C43.661 37.5931 43.2869 37.419 43.4591 36.9854C44.0352 35.5528 45.3162 32.3249 44.7113 31.5583Z" fill="#FF9900"/>
</svg>
