<svg width="50" height="50" viewBox="0 0 50 50" fill="none" xmlns="http://www.w3.org/2000/svg">
<path d="M47 1H4L7.79412 43.9474L25.5 49L43.2059 43.9474L47 1Z" fill="#0277BD"/>
<path d="M26 5V45L39.8978 40.9875L43 5H26Z" fill="#039BE5"/>
<path d="M37 11H26V16.0679H31.9231L31.5604 21.1357H26V26.2036H31.3187L30.956 31.905L26 33.6787V39L35.5495 35.7059L36.3956 21.1357L37 11Z" fill="white"/>
<path d="M26 11V16.0679H14.3913L14 11H26ZM20 21.1357L20.2609 26.2036H26V21.1357H20ZM20.5217 28.7376H15.3043L15.6957 35.7059L26 39V33.6787L20.6522 31.905L20.5217 28.7376Z" fill="#EEEEEE"/>
</svg>
