<svg width="50" height="50" viewBox="0 0 50 50" fill="none" xmlns="http://www.w3.org/2000/svg">
<path d="M46 1H3L6.79412 43.9474L24.5 49L42.2059 43.9474L46 1Z" fill="#E65100"/>
<path d="M25 5V45L38.8978 40.9875L42 5H25Z" fill="#FF6D00"/>
<path d="M25 26.2036V21.1357H36.2174L35.3043 35.7059L25 39V33.6787L30.3478 31.905L30.7391 26.2036H25V26.2036ZM36.6087 16.0679L37 11H25V16.0679H36.6087Z" fill="white"/>
<path d="M25 33.6787V39L14.5824 35.7059L14.0549 28.7376H19.3297L19.5934 31.905L25 33.6787ZM18.5385 16.0679H25V11H13L13.9231 26.2036H25V21.1357H18.9341L18.5385 16.0679Z" fill="#EEEEEE"/>
</svg>
