<svg width="50" height="50" viewBox="0 0 50 50" fill="none" xmlns="http://www.w3.org/2000/svg">
<path d="M24.1964 26C22.9641 23.9983 22.0702 22.3387 20.8317 19.2136C18.7376 13.9349 33.568 9.16513 27.5549 0C30.1614 6.33112 18.1993 10.245 17.088 15.5174C16.0718 20.3668 24.1902 26 24.1964 26Z" fill="#F44336"/>
<path d="M25.0134 16.6389C24.7767 19.7283 27.7606 21.3749 27.8469 23.6318C27.9159 25.4688 26.0635 27 26.0635 27C26.0635 27 29.4258 26.3418 30.4746 23.5397C31.6394 20.4282 28.2142 18.2978 28.5667 15.8063C28.8958 13.4266 36 9 36 9C36 9 25.547 9.69009 25.0134 16.6389Z" fill="#F44336"/>
<path d="M35.1331 26.2318C37.3182 25.741 39.1608 27.1325 39.1608 28.7359C39.1608 32.3499 34.1514 35.7659 34.1514 35.7659C34.1514 35.7659 41.9065 34.8415 41.9065 28.9078C41.9065 24.9835 38.0981 24.0031 35.1331 26.2318ZM31.4518 29.147C31.4518 29.147 33.8698 27.424 34.5139 26.7775C28.5802 28.037 15.0321 28.2064 15.0321 27.1126C15.0321 26.1047 19.4011 25.072 19.4011 25.072C19.4011 25.072 9.71753 24.9324 9.71753 27.789C9.71753 30.7665 22.3935 30.9795 31.4518 29.147Z" fill="#1565C0"/>
<path d="M29.9643 31.8578C24.3469 33.7253 14.0006 33.1285 17.0652 30.6207C15.5728 30.6207 13.3602 31.8204 13.3602 32.974C13.3602 35.2875 24.55 37.074 32.8321 33.6866L29.9643 31.8578Z" fill="#1565C0"/>
<path d="M18.4418 35.8044C16.4037 35.8044 15.0844 37.1175 15.0844 38.0743C15.0844 41.053 27.2434 41.3532 32.0609 38.3297L28.9987 36.2965C25.3996 37.8787 16.3588 38.0967 18.4418 35.8044Z" fill="#1565C0"/>
<path d="M40.3617 40.6544C40.3617 39.4884 39.0474 38.939 38.5764 38.6761C41.3521 45.3698 10.7739 44.8503 10.7739 40.8986C10.7739 40.0004 13.0251 39.1209 15.1056 39.537L13.3365 38.4917C9.19051 37.8414 6.375 39.664 6.375 41.1341C6.375 47.9897 40.3617 47.6596 40.3617 40.6544Z" fill="#1565C0"/>
<path d="M43.7491 43.1111C38.584 48.2126 25.4869 50.0714 12.3163 46.9195C25.4869 52.5293 43.6868 49.37 43.7491 43.1111Z" fill="#1565C0"/>
</svg>
