<svg width="50" height="50" viewBox="0 0 50 50" fill="none" xmlns="http://www.w3.org/2000/svg">
<path d="M45.272 39.6854C43.9938 38.7562 44.4911 36.7042 43.1641 35.6917C44.4493 28.6812 40.847 22.5021 36.5521 18.5417C32.9475 15.2187 34.1095 11.9854 34.1095 9.1875C34.1095 4.71667 32.062 0 25.859 0C19.2284 0 17.411 4.95833 17.3459 7.7875C17.1879 14.5833 18.8775 16.35 14.4409 21.2958C9.22099 27.1146 8.45172 32.9187 9.63002 35.9979C9.07922 36.5729 8.33551 37.2104 6.94572 37.7375C3.10635 39.2375 5.9208 41.7479 4.8587 43.5292C4.55657 44.0354 4.41248 44.5646 4.41248 45.0708C4.41248 46.6333 5.79762 47.9854 8.3146 47.7833C11.7101 47.5125 14.8429 49.6687 16.8695 49.6687C18.6591 49.6687 20.1279 48.7562 20.8111 47.5C24.0114 46.7937 27.9623 46.8833 31.1602 47.6229C31.7343 49.0625 33.2914 50 35.0229 50C38.8134 50 39.5432 46.1479 43.8915 44.8437C45.458 44.375 46.2458 43.0125 46.2458 41.7437C46.2458 40.9312 45.9228 40.1583 45.272 39.6854ZM24.0137 17.8833C23.2723 17.8833 22.6588 17.3458 21.6896 16.7C20.4625 15.8833 19.2145 15.4125 19.2284 14.5542C19.2284 13.9646 20.1093 13.7833 21.2481 13.1354C22.4705 12.4417 22.947 11.7375 24.1508 11.7375C25.3826 11.7375 25.7544 12.2958 27.4278 12.9437C29.0732 13.5833 30.219 13.8333 30.219 14.5542C30.219 15.2937 28.4969 15.8229 27.5277 16.3625C26.1031 17.15 25.371 17.8833 24.0137 17.8833V17.8833ZM27.8833 7.01875C29.9331 7.3125 30.1632 10.5417 29.1825 12.1312L28.3574 11.8292C28.785 10.6979 28.7781 8.83542 27.3464 8.71667C26.4377 8.64167 25.8521 9.71667 25.7266 10.6375C25.371 10.5042 24.9829 10.4083 24.5111 10.3729C24.6552 8.45 26.0403 6.75417 27.8833 7.01875V7.01875ZM19.9745 7.70833C21.5456 7.35833 22.4729 8.99583 22.4798 10.6979L21.7594 11.0937C21.6618 10.3792 21.3062 9.225 20.4137 9.47083C19.4585 9.7375 19.6142 11.7271 20.1465 12.1354L19.4353 12.4896C18.4592 11.0167 18.4615 8.04583 19.9745 7.70833V7.70833ZM15.0591 47.7979C10.4969 45.9375 8.94674 46.3604 8.07522 46.3604C6.26941 46.3604 5.6791 45.1542 6.35773 44.0125C6.9341 43.0437 6.75514 42.0292 6.61337 41.2146C6.39491 39.9667 6.3554 39.5604 7.72428 39.0229C9.6184 38.3021 10.4597 37.375 11.0872 36.6812C12.8489 34.7292 14.6268 37.8 16.084 40.5354C17.0299 42.3083 18.8915 43.2062 19.4655 45.1708C19.9931 46.9854 17.8154 48.9229 15.0591 47.7979V47.7979ZM31.2974 43.8937C28.0808 45.2958 23.9835 45.9396 20.9181 44.5167C20.4649 43.3437 19.7397 42.5854 18.9589 41.8229C20.2115 41.5271 21.1412 40.1271 20.0279 38.7208C18.8403 37.2187 16.414 36.1708 13.9621 34.4708C11.6682 32.8812 10.9431 28.9625 14.0667 24.5833C12.5444 28.4625 13.4345 32.0375 14.1992 33.0604C14.3572 31.0021 14.5385 27.5646 17.676 23.4458C19.2587 21.3667 19.2819 18.6208 19.3168 16.9042L20.7577 17.7875C21.8175 18.4896 22.7053 19.2625 23.9789 19.2625C25.8614 19.2625 26.9025 18.2917 28.3528 17.4854C28.9198 17.1729 29.7774 16.8562 30.4979 16.4167C31.7064 21.575 36.7125 27.7792 36.9937 31.3125C38.158 29.1625 36.6637 23.9917 36.6637 23.9917C38.6205 26.6687 38.7762 28.9 38.8622 31.6375C40.2311 32.1396 41.6999 33.4479 41.8347 35.1708L41.2653 35.1125C40.9725 33.1979 35.2065 30.3854 34.6882 33.9896C31.9225 34.3667 32.9289 38.2937 32.3711 40.8396C32.1154 42.0042 31.6413 42.925 31.2974 43.8937V43.8937ZM42.5598 43.8083C40.2706 44.6 38.7251 46.2812 37.663 47.325C35.6178 49.3375 32.9126 48.3729 32.6244 46.4896C32.32 44.4771 33.4611 43.3792 33.9538 41.1271C34.4023 39.0708 33.9003 35.9062 34.9555 35.5687C35.6411 39.2208 39.757 37.6854 40.6959 36.6896C42.2228 36.6896 42.3507 37.1521 42.6923 38.4333C42.9061 39.2354 43.2013 39.9104 44.0356 40.7042C45.0071 41.6354 44.7096 43.0646 42.5598 43.8083ZM23.9672 16.7125C22.4543 16.7125 21.3224 15.8104 20.4021 15.1104C19.9303 14.7542 20.5183 14.0958 20.9901 14.4542C21.8895 15.1375 22.7959 15.8604 23.9672 15.8604C25.3779 15.8604 26.6213 14.7792 28.3063 14.1833C28.8803 13.9812 29.208 14.7771 28.6386 14.9792C27.0025 15.5562 25.6894 16.7125 23.9672 16.7125V16.7125Z" fill="black"/>
</svg>
