<svg width="50" height="51" viewBox="0 0 50 51" fill="none" xmlns="http://www.w3.org/2000/svg">
<rect y="0.142822" width="50" height="50" rx="10" fill="#40649A"/>
<g clip-path="url(#clip0)">
<path d="M29.9319 11.5429C29.5569 11.5335 29.2287 11.6773 29.06 12.0929C28.7725 12.7898 29.4881 13.471 29.7444 13.8273C29.9225 14.0742 30.1537 14.3523 30.2819 14.6304C30.3662 14.8148 30.3787 14.9992 30.4506 15.1929C30.6287 15.671 30.9131 16.2148 31.1412 16.6585C31.2569 16.8835 31.385 17.1179 31.5319 17.3179C31.6225 17.4398 31.7756 17.496 31.8006 17.6835C31.6506 17.896 31.6412 18.2242 31.5569 18.4929C31.1756 19.696 31.3194 21.1929 31.8725 22.0804C32.0444 22.3554 32.4475 22.9398 32.9975 22.7179C33.4787 22.521 33.3725 21.9117 33.51 21.371C33.5412 21.2523 33.5225 21.1617 33.585 21.0804V21.1054C33.7287 21.3992 33.8756 21.6929 34.0225 21.9835C34.3506 22.5085 34.9287 23.0554 35.4162 23.4273C35.6694 23.6179 35.8694 23.9492 36.1975 24.0617V24.0367H36.1725C36.11 23.9367 36.01 23.896 35.9287 23.8179C35.7381 23.6304 35.5256 23.396 35.3694 23.1804C34.9225 22.5773 34.5287 21.9148 34.1725 21.2273C34.0006 20.8992 33.8506 20.5367 33.7069 20.2023C33.6506 20.071 33.6506 19.8773 33.535 19.8085C33.3756 20.0554 33.1444 20.2523 33.0225 20.5429C32.8287 21.0054 32.8006 21.571 32.7287 22.1554C32.685 22.171 32.7037 22.1585 32.6819 22.1804C32.3412 22.096 32.2194 21.746 32.0944 21.446C31.7756 20.6867 31.7131 19.4617 31.9975 18.5898C32.0694 18.3617 32.3975 17.6492 32.2662 17.4398C32.2037 17.2304 31.9912 17.1117 31.8756 16.9523C31.7287 16.7554 31.585 16.496 31.485 16.2679C31.2225 15.6742 30.9756 14.9867 30.6975 14.3867C30.5662 14.0992 30.3444 13.8117 30.16 13.5554C29.9569 13.2742 29.7319 13.0679 29.5725 12.7242C29.5194 12.6054 29.4412 12.4117 29.5256 12.2867C29.5506 12.2023 29.5881 12.1679 29.6725 12.1398C29.8131 12.0304 30.2069 12.1742 30.3569 12.2367C30.7475 12.3992 31.0756 12.5554 31.4069 12.7742C31.5662 12.8804 31.7256 13.0835 31.9194 13.1429H32.1381C32.485 13.221 32.8694 13.1648 33.1881 13.2648C33.7569 13.4367 34.2662 13.7054 34.7256 13.996C36.135 14.8835 37.2881 16.1492 38.0725 17.6585C38.2006 17.9023 38.2569 18.1367 38.3694 18.3929C38.5912 18.9117 38.8756 19.4492 39.1006 19.9554C39.3225 20.4648 39.5412 20.9742 39.8569 21.396C40.0225 21.6179 40.6662 21.7398 40.9569 21.8617C41.16 21.9492 41.4975 22.0398 41.6881 22.1554C42.06 22.3773 42.4162 22.6429 42.7631 22.8898C42.9381 23.0117 43.4694 23.2773 43.4975 23.4992C42.6381 23.4773 41.9819 23.5554 41.4225 23.7929C41.2631 23.8617 41.0069 23.8617 40.9819 24.0617C41.0662 24.1523 41.0819 24.2898 41.1506 24.4023C41.285 24.6179 41.51 24.9085 41.7131 25.0617C41.935 25.2273 42.16 25.4054 42.3975 25.5523C42.8162 25.8054 43.285 25.9523 43.6912 26.2085C43.9287 26.3617 44.1694 26.5523 44.4006 26.721C44.5162 26.8085 44.5912 26.9398 44.7412 26.9929V26.9679C44.6631 26.8679 44.6444 26.7304 44.5725 26.6273L44.2506 26.3054C43.9412 25.896 43.5475 25.5335 43.1287 25.2335C42.7944 24.9929 42.0475 24.6679 41.91 24.2804L41.885 24.2554C42.1194 24.2304 42.3975 24.1429 42.6162 24.0835C42.985 23.9867 43.31 24.0117 43.6881 23.9148C43.86 23.8648 44.0319 23.8148 44.2037 23.7679V23.6679C44.0131 23.4742 43.8756 23.2117 43.6662 23.0335C43.1194 22.5679 42.5225 22.1023 41.9069 21.7148C41.5662 21.4992 41.1444 21.3585 40.785 21.1773C40.6631 21.1148 40.4506 21.0835 40.3694 20.9804C40.1787 20.7398 40.0756 20.4335 39.9287 20.1523C39.6225 19.5617 39.3225 18.9179 39.0506 18.296C38.8662 17.8742 38.7444 17.4554 38.5131 17.0742C37.4037 15.2523 36.21 14.1492 34.36 13.0679C33.9662 12.8367 33.4944 12.7492 32.9944 12.6304C32.7225 12.6117 32.4569 12.596 32.185 12.5804C32.0225 12.5117 31.8506 12.3117 31.6975 12.2117C31.3131 11.971 30.5569 11.5523 29.9319 11.5429ZM32.5787 14.1929C32.4006 14.1898 32.2725 14.2148 32.1381 14.2429V14.2679H32.1631C32.2475 14.4429 32.4006 14.5554 32.5069 14.7054C32.5881 14.8773 32.6662 15.0492 32.7475 15.221L32.7725 15.196C32.9225 15.0898 32.9944 14.9179 32.9944 14.6585C32.9319 14.596 32.9225 14.5148 32.8725 14.4398C32.8006 14.3367 32.6662 14.2804 32.5787 14.1929ZM6.49126 24.3398C6.25063 24.3492 5.98813 24.396 5.70376 24.4867C5.22876 24.6304 4.99438 24.9148 4.99438 25.4929V31.5429H6.59751V25.6398L8.81938 30.6867C9.09438 31.3148 9.46938 31.5398 10.2038 31.5398C10.9413 31.5398 11.3006 31.3148 11.5756 30.6867L13.7975 25.7679V31.5429H15.3975V25.4929C15.3975 24.9148 15.1663 24.6304 14.6881 24.4867C13.5506 24.1273 12.785 24.4367 12.4413 25.2148L10.16 30.346L7.95376 25.2148C7.70376 24.6304 7.20376 24.3117 6.49126 24.3398ZM25.9944 24.3429C25.3631 24.3429 23.3975 24.4179 23.3975 25.9429V26.9304C23.3975 27.6304 24.0131 28.2023 25.3475 28.3429C25.4975 28.3523 25.6475 28.3648 25.7975 28.3648C25.7975 28.3648 27.3538 28.3335 27.3975 28.3429C28.2975 28.3429 28.1975 29.0429 28.1975 29.1429V29.9429C28.1975 30.0523 28.1725 30.7429 27.3881 30.7429H23.3975V31.5429H27.4038C27.9287 31.5429 28.4381 31.4335 28.8444 31.2429C29.5194 30.9335 29.7975 30.5148 29.7975 29.9648V28.821C29.7975 27.5929 28.2725 27.5429 27.3975 27.5429H25.7975C25.1694 27.5429 25.0725 27.1617 24.9975 26.7429V25.9429C25.0725 25.6242 25.2131 25.1929 25.7694 25.1429H29.7975V24.3429H25.9944ZM32.1819 24.3429C31.0006 24.5054 30.585 25.0929 30.585 25.9429V29.9429C30.585 30.721 31.0194 31.1898 31.9131 31.4335C32.2131 31.5179 32.485 31.5523 32.7412 31.5523L34.5225 31.5429H35.5694L36.46 32.3429H38.26L37.0225 31.2273C37.6037 30.9867 37.785 30.6179 37.785 29.9273V25.9429C37.785 25.0929 37.2319 24.5054 36.0506 24.3429H32.1819ZM38.5975 24.3429V29.9085C38.5975 30.8742 39.1444 31.4179 40.5912 31.5273C40.7256 31.5335 40.8631 31.5429 40.9975 31.5429H44.9975V30.7429H41.3006C40.4756 30.7429 40.1975 30.396 40.1975 29.9023V24.3429H38.5975ZM33.135 25.1429H35.1944C35.7381 25.1429 36.1037 25.5804 36.185 25.9429C36.185 25.9429 36.1975 29.6679 36.1975 29.9429C36.1975 30.2179 36.0444 30.3429 36.0444 30.3429L35.61 29.9429H33.7975L34.6881 30.7429H33.135C32.5787 30.7429 32.2662 30.3304 32.185 29.9429V26.0242C32.185 25.5992 32.51 25.1429 33.135 25.1429ZM16.1975 26.7429C16.2288 26.7742 16.1975 30.1523 16.1975 30.2179C16.21 30.9179 17.0975 31.5304 18.4881 31.5429H20.9975V31.596C20.9975 31.746 21.1069 32.246 20.1975 32.3429C20.1881 32.3429 16.2069 32.3429 16.1975 32.3429V33.1429H20.3694C21.0756 33.121 22.6069 32.9617 22.5975 31.7367C22.5975 31.7148 22.6038 26.7429 22.5975 26.7429H20.9975V30.7429C20.9725 30.7429 19.0163 30.7492 18.6225 30.7429C17.8506 30.7304 17.785 30.2898 17.7975 30.121V26.7429H16.1975Z" fill="white"/>
</g>
<defs>
<clipPath id="clip0">
<rect x="4.99988" y="5.14282" width="40" height="40" rx="10" fill="white"/>
</clipPath>
</defs>
</svg>
