<svg width="48" height="50" viewBox="0 0 48 50" fill="none" xmlns="http://www.w3.org/2000/svg">
<path d="M44 37.7503V13.2508L23.5 1L3 13.2508V37.7503L23.5 50L44 37.7503Z" fill="#43A047"/>
<path d="M33.1591 13.0005C31.5898 13.0005 30.3182 14.2718 30.3182 15.8408V28.6517L17.8 14.6513L17.6511 14.4786C16.2375 12.93 14.6216 13.0005 13.8409 13.0005C12.2716 13.0005 11 14.2718 11 15.8408V35.1549C11 36.7239 12.2716 37.9952 13.8409 37.9952C15.4102 37.9952 16.6818 36.7239 16.6818 35.1549V22.2497L29.4977 36.5955L29.6227 36.7568C31.0227 38.1463 32.9261 37.9952 33.1591 37.9952C34.7284 37.9952 36 36.7239 36 35.1549V15.8408C36 14.2718 34.7284 13.0005 33.1591 13.0005Z" fill="white"/>
</svg>
