<svg width="40" height="40" viewBox="0 0 40 40" fill="none" xmlns="http://www.w3.org/2000/svg">
<circle cx="20" cy="20" r="20" fill="white"/>
<g clip-path="url(#clip0)">
<path d="M26.5432 10H13.4568C11.5506 10 10 11.5506 10 13.4568V26.5432C10 28.4494 11.5506 30 13.4568 30H26.5432C28.4494 30 30 28.4494 30 26.5432V13.4568C30 11.5506 28.4494 10 26.5432 10ZM18.4247 13.1309L18.4346 13.1506H18.3852L18.4247 13.1309ZM26.4049 23.5704L26.2568 23.8469C25.6839 24.9432 24.4296 25.5062 23.2346 25.1901C21.3778 24.6864 19.5605 23.6593 18.158 22.2272C16.7259 20.8148 15.6988 19.0074 15.1951 17.1506C14.8691 15.9556 15.442 14.7012 16.5383 14.1284C16.6568 14.0691 16.7654 14.0099 16.8741 13.9506C17.2099 13.7728 17.6148 13.8815 17.8222 14.1975C18.1877 14.7506 18.7012 15.5506 19.3235 16.4988C19.5111 16.7852 19.4716 17.1704 19.2247 17.4173L18.6716 17.9704C18.3951 18.2469 18.316 18.6716 18.484 19.037C19.0667 20.3111 20.084 21.3284 21.358 21.9111C21.7136 22.079 22.1383 22 22.4247 21.7235L22.9284 21.2198C23.1753 20.9728 23.5506 20.9333 23.8469 21.121L26.1679 22.6321C26.4741 22.8296 26.5827 23.2346 26.4049 23.5704Z" fill="#16DA12"/>
</g>
<defs>
<clipPath id="clip0">
<rect width="20" height="20" fill="white" transform="translate(10.4 10.3999)"/>
</clipPath>
</defs>
</svg>
