<?xml version="1.0" ?><svg viewBox="0 0 512 512" xmlns="http://www.w3.org/2000/svg"><defs><style>.cls-1{fill:#ededed;}.cls-2{fill:#cacaca;}.cls-3{fill:#dfdfdf;}.cls-4{fill:#00b378;}.cls-5{fill:#bdecdc;}.cls-6{fill:#338dbf;}.cls-7{fill:#0071af;}.cls-8{fill:#ee9b9b;}.cls-9{fill:#bebebe;}.cls-10{fill:#8c8c8c;}.cls-11{fill:#096;}.cls-12{fill:#2c78a3;}.cls-13{fill:#a2a2a2;}.cls-14{fill:#00a16c;}.cls-15{fill:#a1c9bc;}</style></defs><title/><g data-name="/ FLAT" id="_FLAT"><rect class="cls-1" height="368" rx="16" width="416" x="72" y="72"/><path class="cls-2" d="M120,392H72v32a15.9304,15.9304,0,0,0,1.09814,5.793A48.0099,48.0099,0,0,1,120,392Z"/><rect class="cls-3" height="368" rx="16" width="416" x="24" y="24"/><path class="cls-4" d="M24,40V88H440V40a16,16,0,0,0-16-16H40A16,16,0,0,0,24,40Z"/><rect class="cls-5" height="16" width="16" x="48" y="48"/><rect class="cls-5" height="16" width="16" x="80" y="48"/><rect class="cls-5" height="16" width="16" x="112" y="48"/><rect class="cls-5" height="16" width="16" x="400" y="48"/><rect class="cls-6" height="16" width="32" x="48" y="112"/><rect class="cls-6" height="16" width="32" x="48" y="160"/><rect class="cls-6" height="16" width="32" x="48" y="208"/><rect class="cls-6" height="16" width="32" x="48" y="304"/><rect class="cls-7" height="16" width="64" x="136" y="112"/><rect class="cls-6" height="48" width="64" x="136" y="152"/><rect class="cls-7" height="16" width="64" x="240" y="112"/><rect class="cls-6" height="48" width="64" x="240" y="152"/><rect class="cls-7" height="16" width="64" x="344" y="112"/><rect class="cls-6" height="48" width="64" x="344" y="152"/><rect class="cls-6" height="48" width="64" x="136" y="232"/><rect class="cls-6" height="48" width="64" x="136" y="312"/><rect class="cls-6" height="48" width="64" x="240" y="232"/><rect class="cls-6" height="48" width="64" x="240" y="312"/><rect class="cls-6" height="48" width="64" x="344" y="232"/><rect class="cls-6" height="16" width="32" x="48" y="256"/><path class="cls-8" d="M384.71826,471.60938l-1.43652-15.93555a79.37381,79.37381,0,0,0,54.43506-28.76856l12.33691,10.18946A95.26618,95.26618,0,0,1,384.71826,471.60938Z"/><rect class="cls-9" height="304" width="16" x="96" y="88"/><path class="cls-2" d="M72.00037,392H424a16.00008,16.00008,0,0,0,16-16V40a16.044,16.044,0,0,0-.24133-2.676C432.74487,234.39233,270.7804,392,72.00037,392Z"/><path class="cls-10" d="M368,448V432H351.19507a39.77223,39.77223,0,0,0-5.839-14.042l12.30066-12.30078-11.31348-11.31446L334.04211,406.644A39.77174,39.77174,0,0,0,320,400.80493V384H304v16.80493a39.77174,39.77174,0,0,0-14.04211,5.83911l-12.30115-12.30127-11.31348,11.31446L278.64392,417.958a39.77223,39.77223,0,0,0-5.839,14.042H256v16h16.80493a39.77223,39.77223,0,0,0,5.839,14.042l-12.30066,12.30078,11.31348,11.31446L289.95789,473.356A39.77174,39.77174,0,0,0,304,479.19507V496h16V479.19507a39.77174,39.77174,0,0,0,14.04211-5.83911l12.30115,12.30127,11.31348-11.31446L345.35608,462.042a39.77223,39.77223,0,0,0,5.839-14.042Zm-56,16a24,24,0,1,1,24-24A24.0275,24.0275,0,0,1,312,464Z"/><path class="cls-11" d="M439.92993,38.61182c-.04175-.4336-.09961-.8628-.17114-1.28711l-.00012-.00074A369.33078,369.33078,0,0,1,434.44556,88H440V40C440,39.53125,439.96948,39.07031,439.92993,38.61182Z"/><path class="cls-12" d="M408,174.29224Q402.11682,187.42566,395.25513,200H408Z"/><path class="cls-12" d="M344,280h64V232H375.61279A369.67318,369.67318,0,0,1,344,271.8623Z"/><path class="cls-12" d="M304,312h-2.90149A368.38057,368.38057,0,0,1,240,351.49976V360h64Z"/><path class="cls-13" d="M96,391.22559V392h16v-2.15479Q104.04919,390.70471,96,391.22559Z"/><path class="cls-8" d="M296.32666,368.71777l-15.93555-1.43554a96.454,96.454,0,0,1,69.43164-83.668l4.3545,15.39648A80.36168,80.36168,0,0,0,296.32666,368.71777Z"/><path class="cls-4" d="M444.68629,268.68629l38.62742,38.62742A16,16,0,0,1,488,318.62742V392a16,16,0,0,1-16,16H392a16,16,0,0,1-16-16V280a16,16,0,0,1,16-16h41.37258A16,16,0,0,1,444.68629,268.68629Z"/><path class="cls-14" d="M483.31372,307.31372l-38.62744-38.62744A15.97373,15.97373,0,0,0,440,265.4563V296a16.00008,16.00008,0,0,0,16,16h30.5437A15.97672,15.97672,0,0,0,483.31372,307.31372Z"/><rect class="cls-5" height="16" width="64" x="400" y="336"/><rect class="cls-5" height="16" width="64" x="400" y="368"/><rect class="cls-5" height="16" width="16" x="400" y="304"/><path class="cls-11" d="M387.68628,407.395A15.97982,15.97982,0,0,0,392,408h80a16.00008,16.00008,0,0,0,16-16V318.62744a15.99539,15.99539,0,0,0-1.2146-6.11352A112.0508,112.0508,0,0,1,387.68628,407.395Z"/><path class="cls-15" d="M445.24817,384H464V368h-2.23865A112.62353,112.62353,0,0,1,445.24817,384Z"/></g></svg>